<?xml version="1.0" encoding="UTF-8" standalone="no"?>
<!-- Created with Inkscape (http://www.inkscape.org/) -->

<svg
   width="8.0021954mm"
   height="7.9375005mm"
   viewBox="0 0 8.0021956 7.9375008"
   version="1.1"
   id="svg3569"
   xml:space="preserve"
   inkscape:version="1.2.2 (732a01da63, 2022-12-09)"
   sodipodi:docname="github.svg"
   xmlns:inkscape="http://www.inkscape.org/namespaces/inkscape"
   xmlns:sodipodi="http://sodipodi.sourceforge.net/DTD/sodipodi-0.dtd"
   xmlns="http://www.w3.org/2000/svg"
   xmlns:svg="http://www.w3.org/2000/svg"><sodipodi:namedview
     id="namedview3571"
     pagecolor="#505050"
     bordercolor="#ffffff"
     borderopacity="1"
     inkscape:showpageshadow="0"
     inkscape:pageopacity="0"
     inkscape:pagecheckerboard="1"
     inkscape:deskcolor="#505050"
     inkscape:document-units="mm"
     showgrid="false"
     inkscape:zoom="13.907857"
     inkscape:cx="15.351035"
     inkscape:cy="13.409687"
     inkscape:window-width="1440"
     inkscape:window-height="878"
     inkscape:window-x="-6"
     inkscape:window-y="-6"
     inkscape:window-maximized="1"
     inkscape:current-layer="layer1" /><defs
     id="defs3566"><inkscape:perspective
       sodipodi:type="inkscape:persp3d"
       inkscape:vp_x="0 : 3.9687504 : 1"
       inkscape:vp_y="0 : 1000 : 0"
       inkscape:vp_z="8.0021956 : 3.9687504 : 1"
       inkscape:persp3d-origin="4.0010978 : 2.6458336 : 1"
       id="perspective10393" /></defs><g
     inkscape:label="Layer 1"
     inkscape:groupmode="layer"
     id="layer1"
     transform="translate(24.161208,-53.032595)"><path
       style="fill:none;stroke:#000000;stroke-width:0.1984375;stroke-dasharray:none;stroke-opacity:1"
       d="m -19.065523,60.734425 c 0.0394,-0.261032 0.02378,-0.07588 0.01528,-0.762682 -0.0076,-0.613345 -0.01293,-0.740856 -0.03391,-0.811907 -0.03815,-0.129186 -0.09068,-0.237593 -0.158648,-0.32739 -0.03399,-0.0449 -0.05915,-0.08424 -0.05594,-0.08744 0.0032,-0.0032 0.121875,-0.02903 0.263692,-0.05742 0.141816,-0.02839 0.327985,-0.07445 0.413707,-0.102366 0.532512,-0.173416 0.855912,-0.467813 1.04303,-0.949486 0.187083,-0.481579 0.219338,-0.866458 0.111638,-1.332093 -0.03705,-0.160188 -0.09958,-0.301203 -0.217673,-0.490897 -0.04765,-0.07656 -0.09938,-0.167747 -0.114921,-0.202633 -0.02664,-0.05979 -0.02688,-0.06839 -0.0043,-0.150024 0.03374,-0.121515 0.04669,-0.45922 0.02279,-0.594197 -0.02995,-0.16925 -0.08751,-0.335923 -0.125018,-0.362036 -0.07004,-0.04877 -0.311096,-0.01472 -0.522756,0.07384 -0.05177,0.02166 -0.200305,0.09732 -0.330069,0.16813 -0.129764,0.07081 -0.261136,0.132101 -0.291937,0.136208 -0.03081,0.0041 -0.105832,-0.0035 -0.166735,-0.01699 -0.557573,-0.123136 -1.202994,-0.12281 -1.75401,8.85e-4 -0.14272,0.03204 -0.195848,0.02108 -0.358807,-0.07403 -0.07744,-0.04521 -0.181559,-0.102464 -0.231358,-0.127249 -0.24724,-0.123051 -0.617365,-0.221335 -0.69725,-0.185151 -0.121191,0.05489 -0.201935,0.616725 -0.131712,0.916488 0.03981,0.169963 0.03663,0.192817 -0.04105,0.293896 -0.317837,0.413617 -0.410126,0.925652 -0.284745,1.579803 0.13253,0.691445 0.55007,1.148249 1.227645,1.343099 0.108518,0.0312 0.187622,0.0483 0.533807,0.115368 l 0.07852,0.01521 -0.06485,0.08759 c -0.06698,0.09045 -0.123261,0.21193 -0.170565,0.368143 -0.02705,0.08936 -0.02789,0.09024 -0.117799,0.12569 -0.248516,0.09797 -0.504339,0.09583 -0.712357,-0.0059 -0.142534,-0.06974 -0.251153,-0.170644 -0.412903,-0.383589 -0.155072,-0.204156 -0.223095,-0.266018 -0.374236,-0.340357 -0.09804,-0.04822 -0.127402,-0.05537 -0.249076,-0.06067 -0.11909,-0.0051 -0.142821,-0.002 -0.173685,0.02277 -0.0349,0.02808 -0.03514,0.02995 -0.01037,0.07756 0.01396,0.02683 0.05673,0.07032 0.09504,0.09662 0.241843,0.166086 0.337636,0.280729 0.484994,0.580432 0.08702,0.176978 0.11397,0.217086 0.213619,0.317882 0.235717,0.238431 0.473341,0.297299 1.07862,0.267211 l 0.15091,-0.0075 -0.0026,0.411321 c -0.0028,0.447274 -0.0057,0.464305 -0.08745,0.508858 0.538281,-0.120077 1.123972,-0.0476 2.16344,-0.075 z"
       id="path8096"
       sodipodi:nodetypes="cccccsssscccccssccccscccsccccccccsccsccsccccc" /></g></svg>
